<svg width="18" height="20" viewBox="0 0 18 20" fill="none" xmlns="http://www.w3.org/2000/svg">
    <path
        d="M12.0005 5C12.0005 4.20435 11.6844 3.44129 11.1218 2.87868C10.5592 2.31607 9.79612 2 9.00047 2C8.20482 2 7.44176 2.31607 6.87915 2.87868C6.31654 3.44129 6.00047 4.20435 6.00047 5C6.00047 5.79565 6.31654 6.55871 6.87915 7.12132C7.44176 7.68393 8.20482 8 9.00047 8C9.79612 8 10.5592 7.68393 11.1218 7.12132C11.6844 6.55871 12.0005 5.79565 12.0005 5ZM14.0005 5C14.0005 6.32608 13.4737 7.59785 12.536 8.53553C11.5983 9.47322 10.3266 10 9.00047 10C7.67439 10 6.40262 9.47322 5.46494 8.53553C4.52726 7.59785 4.00047 6.32608 4.00047 5C4.00047 3.67392 4.52726 2.40215 5.46494 1.46447C6.40262 0.526784 7.67439 0 9.00047 0C10.3266 0 11.5983 0.526784 12.536 1.46447C13.4737 2.40215 14.0005 3.67392 14.0005 5ZM18.0005 16.928C18.1225 18.608 16.7395 20 15.0505 20H2.95847C1.27047 20 -0.113529 18.608 0.00847079 16.928C0.287471 13.083 4.26847 11 9.00047 11C13.7245 11 17.7185 13.05 18.0005 16.928ZM16.0055 17.073C15.7955 14.182 12.6055 13 9.00047 13C5.37247 13 2.20947 14.224 2.00247 17.073C1.96647 17.563 2.40147 18 2.95747 18H15.0505C15.6075 18 16.0405 17.563 16.0055 17.073Z"
        fill="white" />
</svg>
    